<svg width="121" height="32" viewBox="0 0 121 32" fill="none" xmlns="http://www.w3.org/2000/svg">
<rect width="32" height="32" rx="4" fill="#382CDD"/>
<path fill-rule="evenodd" clip-rule="evenodd" d="M17.8303 8.66108C17.0202 7.24627 14.9798 7.24627 14.1697 8.66108L6.68832 21.7272C5.67885 23.4902 7.50073 25.521 9.36256 24.7081L15.1561 21.4755C15.6942 21.2405 16.3059 21.2405 16.844 21.4755L22.6375 24.7081C24.4993 25.521 26.3212 23.4902 25.3117 21.7272L17.8303 8.66108ZM16.0667 18.1455C17.1345 18.1455 18.0001 17.2799 18.0001 16.2121C18.0001 15.1444 17.1345 14.2788 16.0667 14.2788C14.999 14.2788 14.1334 15.1444 14.1334 16.2121C14.1334 17.2799 14.999 18.1455 16.0667 18.1455Z" fill="#EBEAFC"/>
<path d="M11.9996 12.4511L9.36256 11.2998C7.50073 10.4868 5.67885 12.5176 6.68832 14.2806L8.82018 18.0039L11.9996 12.4511Z" fill="#8880EB"/>
<path d="M23.1799 18.0039L20.0005 12.4511L22.6375 11.2998C24.4993 10.4868 26.3212 12.5176 25.3117 14.2806L23.1799 18.0039Z" fill="#8880EB"/>
</svg>
